Coordinates
version=1
nRows=18
nColumns=28
inDegrees=yes

Units are S.I. units (second, meters, Newtons, ...)
Angles are in degrees.

endheader
time	pelvis_tilt	pelvis_list	pelvis_rotation	pelvis_tx	pelvis_ty	pelvis_tz	hip_flexion_r	hip_adduction_r	hip_rotation_r	knee_angle_r	ankle_angle_r	subtalar_angle_r	mtp_angle_r	hip_flexion_l	hip_adduction_l	hip_rotation_l	knee_angle_l	socket_flexion	socket_adduction	socket_rotation	socket_tx	socket_ty	socket_tz	foot_flex	lumbar_extension	lumbar_bending	lumbar_rotation
      0.93333333	      3.94480825	     -8.44963751	     -9.22671384	      0.39772531	      1.02330822	      0.33825493	      3.34688678	     12.29570721	      0.36666001	    -21.15154811	      6.63167504	     -8.84770259	     25.26939439	     21.90810727	    -13.17127653	      8.64388327	    -78.15038733	    -11.45915590	     11.45915590	     10.49487656	      0.04109515	      0.08317842	     -0.03576437	     -0.48051081	    -15.79156615	      8.44345250	     15.33968908
      0.93750000	      3.92770400	     -8.34624101	     -9.43118202	      0.40245208	      1.02424826	      0.33866828	      2.79014387	     12.13771128	      0.63851692	    -20.63189758	      6.56258533	     -8.45504189	     25.34364857	     22.41717675	    -13.07065316	      8.70827303	    -77.72559099	    -11.45915590	     11.45915590	     10.36769803	      0.04146435	      0.08302625	     -0.03562448	     -0.54044602	    -15.71743134	      8.25510780	     15.68319630
      0.94166667	      3.91012718	     -8.29638730	     -9.69820420	      0.40695702	      1.02512679	      0.33898321	      2.35439323	     12.00670697	      0.82394211	    -20.34051774	      6.46005677	     -8.09174364	     25.42990301	     22.79956475	    -12.98245595	      8.76915479	    -77.17312883	    -11.45915590	     11.45915590	     10.16761652	      0.04164761	      0.08204950	     -0.03531404	     -0.52222003	    -15.74589592	      8.15691538	     16.03809993
      0.94583333	      3.92926909	     -8.29827089	     -9.95633559	      0.41110339	      1.02580173	      0.33939951	      2.04068253	     11.92615003	      0.78534760	    -20.35425359	      6.45699794	     -8.05851799	     25.44072722	     23.27812889	    -13.02250548	      8.85232630	    -76.74251647	    -11.45915590	     11.45915590	     10.03182393	      0.04206396	      0.08169616	     -0.03541004	     -0.46868121	    -15.89251796	      8.07911130	     16.06971714
      0.95000000	      3.88467400	     -8.20972380	    -10.11734024	      0.41581837	      1.02666063	      0.33970057	      1.52809773	     11.77014730	      1.01000102	    -19.83825808	      6.38085662	     -7.65447904	     25.52873746	     23.66847458	    -12.89746149	      8.99643804	    -76.07993274	    -11.45915590	     11.45915590	      9.87264994	      0.04217665	      0.08060895	     -0.03529716	     -0.54010159	    -15.80859279	      7.94286839	     16.38949703
      0.95416667	      3.94908641	     -8.21118208	    -10.31497388	      0.41996095	      1.02725913	      0.34005793	      1.19867214	     11.68513188	      0.98534495	    -19.93868333	      6.37305082	     -7.64344862	     25.53218227	     24.14719644	    -12.96108834	      9.07366073	    -75.65851755	    -11.45915590	     11.45915590	      9.72060940	      0.04270627	      0.08053680	     -0.03552810	     -0.47495575	    -15.90168083	      7.89733177	     16.39768487
      0.95833333	      3.81937998	     -8.17141961	    -10.50929535	      0.42463429	      1.02805584	      0.34020528	      0.76301899	     11.57423736	      1.19254520	    -19.36710470	      6.25992647	     -7.20203662	     25.62082915	     24.43911073	    -12.79383446	      9.34323019	    -74.77841210	    -11.45915590	     11.45915590	      9.46816475	      0.04245637	      0.07838337	     -0.03524953	     -0.51471405	    -15.83976630	      7.83189986	     16.71370052
      0.96250000	      3.81555985	     -8.12735557	    -10.73733987	      0.42930890	      1.02885104	      0.34059260	      0.29065334	     11.42692805	      1.23141425	    -19.01981490	      6.10762434	     -6.76756749	     25.73791416	     24.64400781	    -12.74563621	      9.42125180	    -73.98484372	    -11.45915590	     11.45915590	      9.18800093	      0.04232730	      0.07677690	     -0.03517214	     -0.51426516	    -15.82865895	      7.69373232	     17.00649970
      0.96666667	      3.84029957	     -8.13251155	    -10.97181334	      0.43323049	      1.02937616	      0.34094305	      0.00324884	     11.33706318	      1.20260164	    -19.05342604	      6.10204553	     -6.72806047	     25.75342752	     25.11680329	    -12.79890395	      9.55164481	    -73.48050207	    -11.45915590	     11.45915590	      9.02291938	      0.04269292	      0.07655856	     -0.03542874	     -0.45033043	    -16.00568628	      7.61741170	     17.02776379
      0.97083333	      3.77243692	     -8.12249136	    -11.07912460	      0.43784543	      1.03001987	      0.34102877	     -0.40813034	     11.25040780	      1.35148844	    -18.69744843	      6.03955903	     -6.35525149	     25.85689994	     25.31263790	    -12.67066441	      9.88810260	    -72.49867601	    -11.45915590	     11.45915590	      8.76285240	      0.04236231	      0.07414952	     -0.03537257	     -0.48974127	    -15.92298735	      7.60794534	     17.24170386
      0.97500000	      4.44561892	     -7.88083671	    -11.37293224	      0.44257204	      1.03188744	      0.34136000	     -1.45700413	     10.62201037	      0.91269751	    -18.52713292	      6.00265950	     -4.78521466	     26.89742110	     24.26368303	    -12.26364051	      9.63209995	    -71.14851892	    -11.45915590	     11.45915590	      8.16268245	      0.04085516	      0.07038693	     -0.03465392	     -0.49152126	    -16.65635158	      7.06039064	     17.78622687
      0.97916667	      4.36344382	     -7.88272452	    -11.46697939	      0.44683660	      1.03229407	      0.34147782	     -1.75689992	     10.55795458	      0.97237429	    -18.32003040	      5.99337304	     -4.66538212	     26.97237993	     24.67405971	    -12.21216701	     10.00341743	    -70.35702654	    -11.45915590	     11.45915590	      7.98709945	      0.04081429	      0.06913861	     -0.03489904	     -0.47051830	    -16.62089544	      7.04156361	     17.78642680
      0.98333333	      4.27239569	     -7.91207620	    -11.58528480	      0.45097179	      1.03266837	      0.34170875	     -2.02358714	     10.52624915	      0.95751903	    -18.13120853	      5.96000788	     -4.55669861	     27.02028693	     25.08603664	    -12.23478472	     10.24822092	    -69.58096882	    -11.45915590	     11.45915590	      7.71068127	      0.04069534	      0.06783286	     -0.03478925	     -0.44490311	    -16.67047258	      7.03084827	     17.80482648
      0.98750000	      4.15288095	     -7.95005007	    -11.68768783	      0.45565782	      1.03301330	      0.34181212	     -2.36868681	     10.48727472	      1.00212747	    -17.82093491	      5.87422099	     -4.33711682	     27.09556606	     25.33239033	    -12.19499696	     10.68085146	    -68.60221361	    -11.45915590	     11.45915590	      7.39907596	      0.04030195	      0.06572132	     -0.03506313	     -0.46519275	    -16.48625544	      7.09768972	     17.85900989
      0.99166667	      4.21852553	     -7.96047558	    -11.84110288	      0.45952197	      1.03335127	      0.34223470	     -2.67277636	     10.39136701	      0.97615753	    -17.90050130	      5.86658076	     -4.32744052	     27.09985600	     25.83827121	    -12.28517268	     10.76809106	    -68.10762551	    -11.45915590	     11.45915590	      7.21219267	      0.04100436	      0.06613468	     -0.03532252	     -0.39607698	    -16.59916475	      7.04991517	     17.85851725
      0.99583333	      3.93463791	     -8.02547574	    -11.90973340	      0.46466288	      1.03362305	      0.34215873	     -3.02402985	     10.40502695	      0.96736891	    -17.21664890	      5.71637760	     -3.92818102	     27.21755963	     25.85959326	    -12.22377987	     11.34409165	    -66.68475323	    -11.45915590	     11.45915590	      6.73790669	      0.03945766	      0.06188352	     -0.03534824	     -0.48064745	    -16.32307820	      7.18763712	     17.97051718
      1.00000000	      3.88506810	     -8.07339080	    -12.01544092	      0.46881302	      1.03390980	      0.34233912	     -3.32654400	     10.37958952	      1.00448602	    -17.07554604	      5.61878511	     -3.69826135	     27.30248168	     26.07723870	    -12.21122134	     11.78160183	    -65.71537497	    -11.45915590	     11.45915590	      6.44723909	      0.03897644	      0.06009430	     -0.03548987	     -0.45435756	    -16.33360288	      7.17276385	     18.01244120
      1.00416667	      3.78741967	     -8.13409832	    -12.09881779	      0.47334151	      1.03412372	      0.34251425	     -3.66409917	     10.36483010	      0.96955498	    -16.79336304	      5.56232918	     -3.45921884	     27.39909704	     26.22844144	    -12.22811074	     12.17139775	    -64.64897180	    -11.45915590	     11.45915590	      6.04529415	      0.03818472	      0.05770560	     -0.03552432	     -0.46567798	    -16.27216648	      7.22512339	     18.07038877
